<?xml version="1.0" standalone="no"?>
<!DOCTYPE svg PUBLIC "-//W3C//DTD SVG 20010904//EN"
 "http://www.w3.org/TR/2001/REC-SVG-20010904/DTD/svg10.dtd">
<svg version="1.0" xmlns="http://www.w3.org/2000/svg"
 width="510.000000pt" height="410.000000pt" viewBox="0 0 510.000000 410.000000"
 preserveAspectRatio="xMidYMid meet">

<g transform="translate(0.000000,410.000000) scale(0.100000,-0.100000)"
fill="#000000" stroke="none">
<path d="M0 3105 c0 -547 3 -995 8 -995 4 0 329 -5 722 -10 393 -5 888 -14
1100 -20 212 -5 819 -19 1350 -30 531 -11 1138 -25 1350 -30 212 -5 427 -10
478 -10 l92 0 0 1045 0 1045 -2550 0 -2550 0 0 -995z m1827 910 c40 -18 60
-35 83 -71 16 -26 30 -53 30 -60 0 -12 245 -86 680 -204 63 -17 144 -40 180
-50 36 -10 148 -39 249 -65 205 -50 235 -66 271 -139 21 -45 21 -49 18 -555
-2 -280 -5 -512 -8 -514 -3 -3 -45 -1 -95 4 -100 10 -496 45 -675 60 -63 5
-248 21 -410 36 -285 27 -317 28 -950 28 l-655 0 -48 28 c-54 32 -91 82 -108
148 -21 77 2 374 41 529 47 191 148 485 185 538 38 57 117 107 194 123 61 14
71 22 71 57 0 36 38 101 69 120 26 16 63 17 427 14 394 -4 400 -4 451 -27z
m1982 -669 c201 -57 474 -134 606 -171 393 -109 409 -115 439 -179 14 -29 16
-83 16 -400 l0 -365 -47 5 c-27 3 -153 13 -280 24 -785 65 -1099 92 -1103 97
-8 8 -13 1093 -5 1093 5 0 173 -47 374 -104z m-2209 -1010 c0 -67 -28 -112
-90 -143 -44 -23 -46 -23 -523 -23 -439 0 -479 1 -473 16 4 9 31 59 62 110
l55 94 484 0 485 0 0 -54z m572 -43 c16 -17 22 -35 22 -72 1 -79 -10 -86 -152
-83 -64 2 -124 5 -133 8 -41 12 -53 120 -18 155 19 19 30 20 140 17 106 -3
121 -5 141 -25z m499 -21 c18 -15 23 -29 23 -71 1 -77 -13 -84 -139 -76 -55 4
-107 9 -116 11 -34 9 -31 124 3 146 7 4 56 8 109 8 79 0 101 -3 120 -18z m463
-25 c14 -10 17 -25 14 -72 l-3 -60 -111 -3 c-145 -3 -161 10 -133 111 l10 37
103 0 c67 0 108 -4 120 -13z m725 -36 c14 -9 18 -91 6 -111 -9 -15 -198 -13
-213 2 -13 13 -17 100 -5 111 10 10 196 8 212 -2z m745 -44 c13 -9 17 -23 14
-52 l-3 -40 -90 0 -90 0 -3 39 c-5 62 -1 66 81 66 44 0 80 -5 91 -13z"/>
<path d="M969 3702 l-206 -2 -25 -28 c-16 -17 -42 -77 -72 -167 -49 -148 -54
-176 -33 -193 7 -6 168 -13 407 -17 376 -7 396 -6 418 11 25 21 92 223 92 278
0 17 -9 46 -20 64 -32 53 -71 63 -223 60 -73 -2 -225 -4 -338 -6z"/>
<path d="M1856 3523 c-7 -16 -33 -85 -56 -155 -42 -128 -46 -170 -16 -181 7
-3 92 -18 189 -33 145 -23 178 -25 191 -15 13 11 16 40 16 167 0 138 -2 156
-19 173 -19 19 -212 71 -264 71 -19 0 -31 -8 -41 -27z"/>
<path d="M2406 3402 c-2 -4 -7 -70 -11 -147 -5 -110 -4 -144 7 -157 19 -25
257 -71 276 -53 9 8 15 53 19 141 7 165 5 168 -128 200 -97 24 -154 30 -163
16z"/>
<path d="M2885 3284 c-20 -20 -22 -268 -2 -281 6 -4 59 -15 117 -25 97 -15
106 -15 118 0 17 22 17 242 -1 266 -8 11 -40 23 -87 31 -41 8 -87 17 -102 19
-17 3 -33 0 -43 -10z"/>
<path d="M564 2926 c-30 -30 -34 -40 -34 -86 0 -46 4 -56 33 -85 42 -42 92
-53 139 -31 117 56 71 236 -59 236 -38 0 -50 -5 -79 -34z"/>
<path d="M1184 2950 c-83 -33 -86 -183 -4 -225 108 -56 212 46 161 159 -28 65
-93 92 -157 66z"/>
<path d="M3642 3088 c-8 -8 -12 -48 -12 -113 0 -85 3 -105 18 -117 9 -9 64
-23 127 -33 61 -9 115 -18 122 -20 29 -9 43 25 43 105 0 82 -12 125 -38 135
-12 4 -237 55 -246 55 -1 0 -7 -5 -14 -12z"/>
<path d="M4104 2965 c-22 -34 -17 -171 8 -189 21 -16 221 -51 242 -43 21 8 23
164 3 191 -8 11 -50 27 -113 42 -122 30 -120 30 -140 -1z"/>
<path d="M4510 2871 c-14 -27 -13 -144 3 -164 13 -19 166 -53 191 -44 21 8 23
144 3 171 -8 11 -45 26 -93 37 -97 23 -91 23 -104 0z"/>
<path d="M0 910 l0 -910 2550 0 2550 0 0 885 0 885 -27 -11 c-82 -31 -161
-111 -192 -194 -25 -66 -41 -190 -41 -312 0 -88 -1 -93 -22 -97 -32 -7 -202
-25 -206 -22 -1 2 -6 74 -10 162 -10 182 -22 222 -93 299 -51 55 -100 82 -175
96 -107 20 -212 -18 -293 -106 -84 -91 -110 -190 -111 -411 l0 -120 -152 -18
c-84 -10 -161 -20 -170 -22 -17 -5 -18 6 -18 124 0 153 -10 215 -50 299 -78
167 -214 251 -391 241 -144 -8 -277 -100 -351 -243 -54 -105 -60 -134 -67
-335 l-6 -185 -135 -16 c-74 -9 -156 -18 -181 -21 l-47 -5 -5 171 c-5 187 -14
226 -79 349 -41 76 -134 173 -208 214 -172 97 -396 88 -558 -23 -79 -55 -164
-154 -206 -238 -56 -116 -66 -174 -66 -397 l0 -197 -33 -6 c-17 -3 -93 -12
-167 -21 -74 -9 -145 -18 -156 -20 -22 -5 -22 -3 -26 203 -4 180 -8 216 -28
277 -89 275 -290 480 -565 575 -61 21 -223 60 -250 60 -13 0 -15 -105 -15
-910z"/>
</g>
</svg>
